<svg xmlns="http://www.w3.org/2000/svg" style="background-color:#FFF" viewBox="197.4 118.66 74.98 75.02"><path stroke="black" fill="none" stroke-width="1" d="M240.84, 160.95L241.94, 165.4L242.64, 169.49L242.95, 173.21L242.9, 176.59L242.52, 179.63L241.83, 182.34L240.86, 184.72L239.65, 186.79L238.2, 188.55L236.56, 190.02L234.74, 191.19L232.78, 192.09L230.69, 192.71L228.51, 193.07L226.26, 193.18L223.97, 193.03L221.67, 192.65L219.37, 192.04L217.11, 191.21L214.92, 190.17L212.81, 188.92L210.82, 187.47L208.98, 185.84L207.3, 184.03L205.81, 182.05L204.55, 179.91L203.54, 177.62L202.79, 175.18L202.35, 172.6L202.24, 169.9L202.48, 167.07L203.1, 164.14"/><path stroke="black" fill="none" stroke-width="1" d="M229.35, 158.82L231.25, 158.19L233.15, 157.78L236.97, 157.48L240.81, 157.65L244.7, 158.01L248.64, 158.29L252.64, 158.22L254.67, 157.96L256.71, 157.51L258.78, 156.83L260.87, 155.89"/><path stroke="black" fill="none" stroke-width="1" d="M239.89, 153.59L238.82, 148.75L238.18, 144.33L237.96, 140.29L238.11, 136.64L238.6, 133.36L239.41, 130.45L240.49, 127.9L241.83, 125.69L243.38, 123.82L245.11, 122.28L247, 121.06L249.01, 120.14L251.1, 119.53L253.25, 119.2L255.43, 119.16L257.6, 119.39L259.73, 119.88L261.79, 120.62L263.75, 121.6L265.57, 122.82L267.22, 124.26L268.68, 125.92L269.9, 127.78L270.87, 129.84L271.54, 132.08L271.88, 134.5L271.87, 137.09L271.46, 139.84L270.64, 142.73L269.36, 145.76L267.59, 148.93L265.31, 152.21"/><path stroke="black" fill="none" stroke-width="1" d="M242.32, 130.72L245.24, 131.74L247.95, 133.03L250.43, 134.57L252.69, 136.34L254.74, 138.32L256.58, 140.47L258.22, 142.78L259.65, 145.22L260.88, 147.78L261.92, 150.43L263.44, 155.89L264.22, 161.44L264.31, 166.88L263.74, 172.04L263.21, 174.46L262.53, 176.73L261.7, 178.84L260.72, 180.77L259.61, 182.48L258.35, 183.97L256.96, 185.2L255.44, 186.15L253.79, 186.8L252.02, 187.13L250.13, 187.11L248.13, 186.72L246.01, 185.94L243.79, 184.74"/><path stroke="black" fill="none" stroke-width="1" d="M222.06, 161.77L218.18, 162.29L214.68, 162.53L211.53, 162.52L208.73, 162.26L206.28, 161.78L204.16, 161.1L202.37, 160.23L200.89, 159.18L199.72, 157.99L198.84, 156.66L198.25, 155.22L197.94, 153.68L197.9, 152.05L198.12, 150.37L198.6, 148.64L199.31, 146.88L200.26, 145.11L201.43, 143.36L202.82, 141.62L204.41, 139.94L206.2, 138.31L208.18, 136.76L210.34, 135.32L212.66, 133.98L215.15, 132.78L217.79, 131.73L220.57, 130.85L223.48, 130.16L226.52, 129.67L229.67, 129.41L232.93, 129.38L236.29, 129.61"/><path stroke="black" fill="none" stroke-width="1" d="M205.6, 156.48L206.47, 154.84L207.37, 153.45L208.31, 152.32L209.27, 151.42L210.27, 150.75L211.3, 150.3L212.35, 150.05L213.42, 150L215.61, 150.45L217.87, 151.55L220.16, 153.23L222.48, 155.39L224.79, 157.97L227.09, 160.86L231.54, 167.29L235.68, 174L237.58, 177.25L239.35, 180.33"/></svg>